<svg width="320" height="160" viewBox="0 0 1280 640" fill="none" xmlns="http://www.w3.org/2000/svg"><path d="M950.308 526.179c-16.122 1.005-28.779-2.549-37.969-10.661-9.19-8.113-14.3-20.427-15.329-36.943l-19.622-314.983c-1.004-16.123 2.918-29.197 11.768-39.223 9.218-10.443 22.086-16.179 38.602-17.208 16.909-1.054 30.585 3.029 41.029 12.247 10.418 8.826 16.13 21.3 17.135 37.422l17.308 277.823 135.67-8.452c34.21-2.131 52.23 11.55 54.07 41.043.93 14.943-2.71 26.223-10.92 33.84-7.82 7.593-20.38 11.928-37.68 13.006l-194.062 12.089z" fill="#B094FF"/><path d="M889.156 124.369l-22.491-19.853 22.491 19.853zm79.631-4.961L948.933 141.9l.23.202.233.198 19.391-22.892zm34.443 315.245l-29.943 1.865 1.865 29.942 29.938-1.865-1.86-29.942zm178.82 66.431l-20.4-21.993-.26.234-.24.239 20.9 21.52zm-233.607-4.847c-10.8.673-14.74-1.877-16.251-3.211l-39.706 44.983c16.869 14.891 38.242 19.448 59.688 18.112l-3.731-59.884zm-16.251-3.211c-1.375-1.214-4.527-4.883-5.24-16.316l-59.884 3.73c1.346 21.599 8.413 42.558 25.418 57.569l39.706-44.983zm-5.24-16.316L907.33 161.726l-59.884 3.731 19.622 314.983 59.884-3.73zM907.33 161.726c-.62-9.945 1.797-14.649 4.317-17.504l-44.982-39.706c-15.18 17.196-20.608 38.641-19.219 60.941l59.884-3.731zm4.317-17.504c2.978-3.373 7.799-6.485 17.976-7.119l-3.731-59.884c-22.854 1.424-43.768 9.784-59.227 27.297l44.982 39.706zm17.976-7.119c10.798-.673 16.079 1.944 19.31 4.797l39.707-44.983c-17.655-15.584-39.727-21.132-62.748-19.698l3.731 59.884zm19.773 5.197c3.051 2.584 5.986 6.811 6.584 16.396l59.88-3.731c-1.41-22.66-9.9-43.381-27.683-58.448L949.396 142.3zm6.584 16.396l17.307 277.822 59.883-3.73-17.31-277.823-59.88 3.731zm49.11 305.899l135.67-8.452-3.73-59.884-135.67 8.452 3.73 59.884zm135.67-8.452c13.49-.84 18.21 1.88 19.18 2.617.07.056 2.53 1.473 3.09 10.349l59.88-3.731c-1.28-20.616-8.75-40.787-26.7-54.411-17.05-12.944-38.46-15.999-59.18-14.708l3.73 59.884zm22.27 12.966c.29 4.671-.23 7.326-.64 8.59-.34 1.048-.62 1.281-.74 1.392l40.8 43.986c16.86-15.641 21.75-37.002 20.46-57.699l-59.88 3.731zm-1.88 10.455c-.4.39-4.5 3.703-18.64 4.584l3.73 59.884c20.46-1.275 41.48-6.632 56.71-21.428l-41.8-43.04zm-18.64 4.584l-194.067 12.089 3.731 59.884 194.066-12.089-3.73-59.884z" fill="#B094FF"/><path d="M950.371 525.177c-16.123 1.005-28.78-2.549-37.97-10.661-9.19-8.113-14.3-20.427-15.328-36.943L877.45 162.59c-1.004-16.123 2.918-29.197 11.768-39.223 9.219-10.443 22.086-16.179 38.602-17.208 16.909-1.054 30.585 3.029 41.029 12.247 10.419 8.826 16.13 21.3 17.135 37.423l17.306 277.822 135.67-8.452c34.21-2.131 52.23 11.55 54.07 41.043.93 14.943-2.71 26.223-10.92 33.84-7.81 7.593-20.37 11.928-37.68 13.006l-194.059 12.089z" fill="#EDD7FF"/><path d="M495.312 505.602c-15.913-2.776-27.395-9.178-34.444-19.207-7.05-10.028-9.187-22.999-6.411-38.913L508.789 136c2.776-15.914 9.178-27.395 19.207-34.445 10.029-7.05 23-9.186 38.913-6.41l117.607 20.514c45.412 7.921 82.964 23.07 112.657 45.447 30.148 22.057 51.281 49.94 63.399 83.65 12.117 33.71 14.486 71.718 7.107 114.025-7.448 42.696-22.613 78.046-45.495 106.05-22.427 27.684-51.558 46.8-87.394 57.347-35.447 10.614-76.071 11.927-121.871 3.938l-117.607-20.514zm125.068-66.973c39.979 6.973 71.558 2.483 94.738-13.471 23.636-16.274 38.975-44.595 46.016-84.961 7.042-40.367 2.163-72.014-14.635-94.941-16.41-22.86-44.604-37.777-84.582-44.751l-52.399-9.14-41.537 238.124 52.399 9.14z" fill="#94E5FF"/><path d="M797.173 161.106l-18.056 23.959.17.128.172.126 17.714-24.213zm25.011 303.725l-23.231-18.982-.04.049-.04.049 23.311 18.884zm-87.394 57.347l-8.47-28.78-.068.02-.068.021 8.606 28.739zm-19.672-97.02l17.009 24.713.005-.004-17.014-24.709zm31.381-179.902l-24.371 17.494.085.118.086.118 24.2-17.73zm-136.981-53.891l5.155-29.553-29.554-5.155-5.155 29.553 29.554 5.155zm-41.537 238.124l-29.553-5.155-5.155 29.554 29.553 5.155 5.155-29.554zm-67.513 46.559c-10.66-1.859-13.899-5.257-15.058-6.905l-49.085 34.505c12.94 18.408 32.665 27.815 53.832 31.508l10.311-59.108zm-15.058-6.905c-1.158-1.649-3.259-5.846-1.399-16.506l-59.108-10.31c-3.692 21.167-1.519 42.912 11.422 61.321l49.085-34.505zm-1.399-16.506l54.332-311.482-59.107-10.31-54.333 311.482 59.108 10.31zm54.332-311.482c1.86-10.66 5.257-13.898 6.905-15.057l-34.504-49.086c-18.409 12.94-27.816 32.665-31.508 53.833l59.107 10.31zm6.905-15.057c1.649-1.159 5.847-3.259 16.506-1.4l10.311-59.107c-21.168-3.693-42.913-1.52-61.321 11.421l34.504 49.086zm16.506-1.4l117.607 20.515 10.31-59.108-117.606-20.514-10.311 59.107zm117.607 20.515c41.831 7.296 74.662 20.94 99.756 39.852l36.111-47.917c-34.291-25.843-76.564-42.497-125.557-51.043l-10.31 59.108zm100.098 40.106c25.537 18.683 42.878 41.758 52.881 69.585l56.463-20.296c-14.232-39.592-39.157-72.283-73.916-97.714l-35.428 48.425zm52.881 69.585c10.037 27.92 12.448 60.524 5.785 98.722l59.107 10.311c8.097-46.417 5.77-89.829-8.429-129.329l-56.463 20.296zm5.785 98.722c-6.738 38.626-20.14 68.931-39.172 92.223l46.461 37.964c26.733-32.716 43.661-73.112 51.818-119.876l-59.107-10.311zm-39.252 92.321c-18.406 22.72-42.254 38.534-72.553 47.451l16.941 57.559c41.371-12.176 75.785-34.594 102.233-67.242l-46.621-37.768zm-72.689 47.492c-29.989 8.98-65.75 10.512-108.11 3.123l-10.31 59.108c49.24 8.589 94.727 7.496 135.632-4.753l-17.212-57.478zm-108.11 3.123l-117.606-20.514-10.311 59.108 117.607 20.514 10.31-59.108zm-2.849-28.379c44.293 7.726 84.865 3.738 116.902-18.312l-34.017-49.425c-14.324 9.858-36.91 14.85-72.575 8.629l-10.31 59.108zm116.907-18.316c32.677-22.5 50.729-59.643 58.556-104.515l-59.107-10.31c-6.256 35.86-18.881 55.358-33.476 65.407l34.027 49.418zm58.556-104.515c7.818-44.82 3.427-85.867-19.989-117.827l-48.4 35.461c10.181 13.895 15.546 36.143 9.282 72.056l59.107 10.31zM770.87 227.761c-22.68-31.594-59.506-49.083-103.798-56.809l-10.31 59.107c35.664 6.221 55.226 18.566 65.366 32.691l48.742-34.989zm-103.798-56.809l-52.399-9.14-10.31 59.107 52.399 9.14 10.31-59.107zm-87.108 15.258l-41.536 238.124 59.107 10.31 41.537-238.123-59.108-10.311zm-17.138 272.833l52.399 9.14 10.31-59.108-52.398-9.14-10.311 59.108z" fill="#94E5FF"/><path d="M494.312 505.602c-15.913-2.776-27.395-9.178-34.444-19.207-7.05-10.028-9.187-22.999-6.411-38.913L507.789 136c2.776-15.914 9.178-27.395 19.207-34.445 10.029-7.05 23-9.186 38.913-6.41l117.607 20.514c45.412 7.921 82.964 23.07 112.657 45.447 30.148 22.057 51.281 49.94 63.399 83.65 12.117 33.71 14.486 71.718 7.107 114.025-7.448 42.696-22.613 78.046-45.495 106.05-22.427 27.684-51.558 46.8-87.394 57.347-35.447 10.614-76.071 11.927-121.871 3.938l-117.607-20.514zm125.068-66.973c39.979 6.973 71.558 2.483 94.738-13.471 23.636-16.274 38.975-44.595 46.016-84.961 7.042-40.367 2.163-72.014-14.635-94.941-16.41-22.86-44.604-37.777-84.582-44.751l-52.399-9.14-41.537 238.124 52.399 9.14z" fill="#D7F8FF"/><path d="M477.854 417.186c11.012 8.983 17.047 19.954 18.106 32.913 1.059 12.959-2.919 24.748-11.934 35.367-9.015 10.62-20.199 16.475-33.55 17.566-14.53 1.187-28.395-4.005-41.595-15.577L226.952 329.173l11.358 139.013c1.348 16.493-2.486 30.049-11.501 40.668-9.047 10.227-22.014 16.03-38.899 17.41-16.494 1.348-30.034-2.29-40.621-10.912-10.227-9.048-16.014-21.818-17.362-38.311l-25.748-315.135c-1.316-16.1 2.354-29.247 11.009-39.442 9.015-10.62 21.769-16.603 38.262-17.951 16.886-1.379 30.638 2.438 41.258 11.454 10.587 8.622 16.538 20.983 17.854 37.084l10.588 129.588 151.899-180.222c9.344-11.436 20.495-17.684 33.454-18.743 12.959-1.059 24.748 2.92 35.367 11.934 10.588 8.623 16.411 19.414 17.469 32.372 1.059 12.959-3.656 25.401-14.146 37.327L336.114 293.57l141.74 123.616z" fill="#FFB2B2"/><path d="M477.854 417.186l-19.719 22.609.373.325.383.313 18.963-23.247zm6.172 68.28l-22.871-19.415 22.871 19.415zm-75.145 1.989l19.776-22.559-.042-.037-.043-.037-19.691 22.633zM226.952 329.173l19.691-22.633-55.592-48.367 6.001 73.443 29.9-2.443zm-.143 179.681l22.469 19.878.203-.229.198-.233-22.87-19.416zm-79.52 6.498l-19.878 22.469.459.406.474.386 18.945-23.261zm-32.101-392.888l-22.87-19.415 22.87 19.415zm79.52-6.497l-19.416 22.87.234.198.237.193 18.945-23.261zm28.442 166.672l-29.9 2.443 5.927 72.549 46.912-55.658-22.939-19.334zm151.899-180.222l22.939 19.335.148-.176.146-.178-23.233-18.981zm68.821-6.809l-19.415 22.871.233.198.238.193 18.944-23.262zm3.323 69.699l-22.526-19.813-.076.086-.076.088 22.678 19.639zM336.114 293.57l-22.678-19.64-19.571 22.599 22.531 19.65 19.718-22.609zm122.777 146.863c5.34 4.356 6.84 8.085 7.169 12.109l59.801-4.886c-1.789-21.894-12.36-40.106-29.044-53.716l-37.926 46.493zm7.169 12.109c.361 4.423-.632 8.476-4.905 13.509l45.741 38.83c13.758-16.205 20.721-35.731 18.965-57.225l-59.801 4.886zm-4.905 13.509c-4.094 4.824-8.047 6.666-13.122 7.08l4.886 59.801c21.627-1.767 40.042-11.635 53.977-28.051l-45.741-38.83zm-13.122 7.08c-4.817.394-10.944-.843-19.376-8.235l-39.552 45.118c17.968 15.751 39.571 24.899 63.814 22.918l-4.886-59.801zm-19.461-8.309L246.643 306.54l-39.382 45.266L389.19 510.088l39.382-45.266zm-231.52-133.206l11.358 139.013 59.801-4.886-11.359-139.013-59.8 4.886zm11.358 139.013c.83 10.163-1.559 15.379-4.471 18.81l45.74 38.831c15.118-17.809 20.396-39.705 18.532-62.527l-59.801 4.886zm-4.07 18.347c-2.748 3.107-7.751 6.479-18.874 7.388l4.887 59.8c22.648-1.85 43.579-10.085 58.925-27.432l-44.938-39.756zm-18.874 7.388c-10.508.858-15.876-1.541-19.232-4.274l-37.89 46.523c17.819 14.512 39.531 19.388 62.009 17.551l-4.887-59.8zm-18.299-3.482c-3.242-2.868-6.481-7.775-7.339-18.284l-59.801 4.886c1.837 22.478 10.173 43.111 27.384 58.337l39.756-44.939zm-7.339-18.284l-25.749-315.135-59.8 4.886 25.748 315.135 59.801-4.886zm-25.749-315.135c-.811-9.931 1.514-14.681 3.979-17.584l-45.74-38.83c-14.846 17.486-19.859 39.032-18.04 61.3l59.801-4.886zm3.979-17.584c2.912-3.43 7.672-6.635 17.835-7.465l-4.886-59.801c-22.823 1.865-43.572 10.627-58.69 28.436l45.741 38.83zm17.835-7.465c10.783-.881 16.113 1.633 19.399 4.423l38.831-45.74c-17.953-15.241-40.128-20.362-63.116-18.484l4.886 59.801zm19.87 4.814c3.099 2.524 6.116 6.694 6.898 16.266l59.801-4.886c-1.849-22.629-10.735-43.182-28.81-57.903l-37.889 46.523zm6.898 16.266l10.589 129.588 59.8-4.886-10.588-129.588-59.801 4.886zm63.428 146.479l151.899-180.221-45.878-38.669-151.899 180.222 45.878 38.668zm152.193-180.575c4.953-6.063 8.965-7.522 12.664-7.824l-4.886-59.8c-22.219 1.815-40.509 12.852-54.243 29.663l46.465 37.961zm12.664-7.824c4.423-.361 8.476.632 13.509 4.905l38.83-45.74C447.08 58.98 427.554 52.016 406.06 53.773l4.886 59.8zm13.98 5.296c4.609 3.754 6.156 7.183 6.513 11.553l59.801-4.886c-1.761-21.547-11.86-39.7-28.425-53.19l-37.889 46.523zm6.513 11.553c.254 3.106-.383 7.807-6.772 15.071l45.052 39.627c14.591-16.588 23.385-36.772 21.521-59.584l-59.801 4.886zm-6.924 15.245L313.436 273.93l45.356 39.28 111.079-128.263-45.356-39.279zM316.396 316.179l141.739 123.616 39.437-45.218-141.739-123.616-39.437 45.218z" fill="#FFB3B3"/><path d="M477.854 417.186c11.012 8.983 17.047 19.954 18.106 32.913 1.059 12.959-2.919 24.748-11.934 35.367-9.015 10.62-20.199 16.475-33.55 17.566-14.53 1.187-28.395-4.005-41.595-15.577L226.952 329.173l11.358 139.013c1.348 16.493-2.486 30.049-11.501 40.668-9.047 10.227-22.014 16.03-38.899 17.41-16.494 1.348-30.034-2.29-40.621-10.912-10.227-9.048-16.014-21.818-17.362-38.311l-25.748-315.135c-1.316-16.1 2.354-29.247 11.009-39.442 9.015-10.62 21.769-16.603 38.262-17.951 16.886-1.379 30.638 2.438 41.258 11.454 10.587 8.622 16.538 20.983 17.854 37.084l10.588 129.588 151.899-180.222c9.344-11.436 20.495-17.684 33.454-18.743 12.959-1.059 24.748 2.92 35.367 11.934 10.588 8.623 16.411 19.414 17.469 32.372 1.059 12.959-3.656 25.401-14.146 37.327L336.114 293.57l141.74 123.616z" fill="#FFE5D7"/></svg>